<?xml version="1.0" encoding="UTF-8" standalone="no"?>
<!-- This is a Stata 18.0 generated SVG file (http://www.stata.com) -->

<svg version="1.1" width="5.500in" height="4.000in" viewBox="0 0 3960 2880" xmlns="http://www.w3.org/2000/svg" xmlns:xlink="http://www.w3.org/1999/xlink">
	<desc>Stata Graph - Graph</desc>
	<rect x="0" y="0" width="3960" height="2880" style="fill:#FFFFFF;stroke:none"/>
	<rect x="0.00" y="0.00" width="3959.88" height="2880.00" style="fill:#FFFFFF"/>
	<rect x="2.88" y="2.88" width="3954.12" height="2874.24" style="fill:none;stroke:#FFFFFF;stroke-width:5.76"/>
	<rect x="393.68" y="103.74" width="3462.46" height="1847.08" style="fill:none;stroke:#000000;stroke-width:5.76"/>
	<rect x="755.25" y="1834.40" width="595.61" height="119.30" style="fill:#FF7F00;fill-opacity:0.40"/>
	<rect x="759.57" y="1838.72" width="586.97" height="110.66" style="fill:none;stroke:#D7D29E;stroke-width:8.64"/>
	<rect x="1350.86" y="1595.81" width="595.48" height="357.90" style="fill:#FF7F00;fill-opacity:0.40"/>
	<rect x="1355.17" y="1600.13" width="586.85" height="349.26" style="fill:none;stroke:#D7D29E;stroke-width:8.64"/>
	<rect x="1946.34" y="999.31" width="595.61" height="954.39" style="fill:#FF7F00;fill-opacity:0.40"/>
	<rect x="1950.66" y="1003.63" width="586.97" height="945.75" style="fill:none;stroke:#D7D29E;stroke-width:8.64"/>
	<rect x="2541.95" y="164.22" width="595.49" height="1789.48" style="fill:#FF7F00;fill-opacity:0.40"/>
	<rect x="2546.27" y="168.54" width="586.85" height="1780.84" style="fill:none;stroke:#D7D29E;stroke-width:8.64"/>
	<rect x="3137.43" y="1595.81" width="595.61" height="357.90" style="fill:#FF7F00;fill-opacity:0.40"/>
	<rect x="3141.75" y="1600.13" width="586.97" height="349.26" style="fill:none;stroke:#D7D29E;stroke-width:8.64"/>
	<path d=" M755.25 1937.86 L765.15 1937.12 L775.17 1936.25 L785.07 1935.39 L795.09 1934.52 L804.99 1933.65 L814.89 1932.66 L824.92 1931.67 L834.82 1930.56 L844.84 1929.57 L854.74 1928.33 L864.77 1927.22 L874.67 1925.98 L884.69 1924.74 L894.59 1923.38 L904.61 1922.02 L914.51 1920.54 L924.54 1919.05 L934.44 1917.57 L944.46 1915.96 L954.36 1914.35 L964.38 1912.62 L974.28 1910.76 L984.31 1908.90 L994.21 1907.05 L1004.23 1905.07 L1014.13 1902.96 L1024.03 1900.86 L1034.06 1898.63 L1043.96 1896.40 L1053.98 1894.05 L1063.88 1891.58 L1073.90 1888.98 L1083.80 1886.38 L1093.83 1883.66 L1103.73 1880.94 L1113.75 1878.09 L1123.65 1875.12 L1133.67 1872.02 L1143.57 1868.81 L1153.60 1865.59 L1163.50 1862.12 L1173.52 1858.66 L1183.42 1855.07 L1193.45 1851.48 L1203.35 1847.65 L1213.37 1843.69 L1223.27 1839.72 L1233.17 1835.52 L1243.19 1831.31 L1253.09 1826.85 L1263.12 1822.40 L1273.02 1817.70 L1283.04 1812.99 L1292.94 1808.04 L1302.96 1803.09 L1312.86 1797.90 L1322.89 1792.57 L1332.79 1787.13 L1342.81 1781.56 L1352.71 1775.87 L1362.74 1770.05 L1372.64 1763.99 L1382.66 1757.92 L1392.56 1751.61 L1402.58 1745.18 L1412.48 1738.62 L1422.51 1731.94 L1432.41 1725.01 L1442.31 1717.95 L1452.33 1710.77 L1462.23 1703.47 L1472.25 1695.92 L1482.15 1688.25 L1492.18 1680.45 L1502.08 1672.53 L1512.10 1664.37 L1522.00 1656.07 L1532.03 1647.66 L1541.93 1639.00 L1551.95 1630.33 L1561.85 1621.30 L1571.87 1612.27 L1581.77 1603.11 L1591.80 1593.70 L1601.70 1584.17 L1611.72 1574.40 L1621.62 1564.62 L1631.64 1554.60 L1641.54 1544.45 L1651.44 1534.05 L1661.47 1523.66 L1671.37 1513.01 L1681.39 1502.25 L1691.29 1491.36 L1701.32 1480.34 L1711.22 1469.21 L1721.24 1457.94 L1731.14 1446.44 L1741.16 1434.93 L1751.06 1423.17 L1761.09 1411.41 L1770.99 1399.41 L1781.01 1387.40 L1790.91 1375.28 L1800.93 1362.90 L1810.83 1350.53 L1820.86 1338.15 L1830.76 1325.53 L1840.78 1312.90 L1850.68 1300.03 L1860.58 1287.29 L1870.61 1274.29 L1880.51 1261.42 L1890.53 1248.31 L1900.43 1235.19 L1910.45 1222.07 L1920.35 1208.83 L1930.38 1195.59 L1940.28 1182.34 L1950.30 1168.98 L1960.20 1155.61 L1970.22 1142.25 L1980.12 1128.88 L1990.15 1115.52 L2000.05 1102.15 L2010.07 1088.79 L2019.97 1075.42 L2030.00 1062.06 L2039.90 1048.81 L2049.92 1035.57 L2059.82 1022.33 L2069.72 1009.21 L2079.74 996.09 L2089.64 983.10 L2099.67 970.11 L2109.57 957.36 L2119.59 944.49 L2129.49 931.87 L2139.51 919.37 L2149.41 906.87 L2159.44 894.62 L2169.34 882.37 L2179.36 870.36 L2189.26 858.48 L2199.29 846.72 L2209.19 835.09 L2219.21 823.71 L2229.11 812.44 L2239.13 801.43 L2249.03 790.54 L2259.06 779.90 L2268.96 769.50 L2278.86 759.23 L2288.88 749.33 L2298.78 739.55 L2308.80 730.02 L2318.70 720.74 L2328.73 711.71 L2338.63 702.92 L2348.65 694.38 L2358.55 686.09 L2368.57 678.17 L2378.48 670.37 L2388.50 663.07 L2398.40 655.90 L2408.42 649.09 L2418.32 642.53 L2428.35 636.34 L2438.25 630.53 L2448.27 624.96 L2458.17 619.64 L2468.19 614.69 L2478.09 610.11 L2487.99 605.90 L2498.02 601.94 L2507.92 598.35 L2517.94 595.13 L2527.84 592.16 L2537.86 589.56 L2547.77 587.34 L2557.79 585.48 L2567.69 583.99 L2577.71 582.88 L2587.61 582.01 L2597.64 581.64 L2607.54 581.52 L2617.56 581.77 L2627.46 582.39 L2637.48 583.38 L2647.38 584.61 L2657.41 586.35 L2667.31 588.33 L2677.33 590.68 L2687.23 593.40 L2697.26 596.49 L2707.16 599.83 L2717.06 603.67 L2727.08 607.76 L2736.98 612.09 L2747.00 616.91 L2756.90 621.99 L2766.93 627.31 L2776.83 633.00 L2786.85 639.06 L2796.75 645.38 L2806.77 652.06 L2816.67 658.99 L2826.70 666.29 L2836.60 673.84 L2846.62 681.64 L2856.52 689.68 L2866.55 698.10 L2876.45 706.76 L2886.47 715.67 L2896.37 724.70 L2906.39 734.11 L2916.29 743.76 L2926.19 753.66 L2936.22 763.81 L2946.12 774.08 L2956.14 784.60 L2966.04 795.37 L2976.06 806.26 L2985.96 817.39 L2995.99 828.78 L3005.89 840.17 L3015.91 851.92 L3025.81 863.68 L3035.84 875.68 L3045.74 887.69 L3055.76 899.94 L3065.66 912.31 L3075.68 924.81 L3085.58 937.44 L3095.61 950.18 L3105.51 962.93 L3115.53 975.92 L3125.43 988.79 L3135.33 1001.91 L3145.35 1015.03 L3155.25 1028.15 L3165.28 1041.39 L3175.18 1054.63 L3185.20 1068.00 L3195.10 1081.36 L3205.13 1094.73 L3215.03 1108.09 L3225.05 1121.46 L3234.95 1134.82 L3244.97 1148.19 L3254.87 1161.55 L3264.90 1174.80 L3274.80 1188.16 L3284.82 1201.40 L3294.72 1214.64 L3304.74 1227.89 L3314.64 1241.00 L3324.67 1254.12 L3334.57 1267.12 L3344.47 1280.11 L3354.49 1292.98 L3364.39 1305.73 L3374.42 1318.47 L3384.32 1331.10 L3394.34 1343.60 L3404.24 1356.09 L3414.26 1368.35 L3424.16 1380.60 L3434.19 1392.73 L3444.09 1404.73 L3454.11 1416.61 L3464.01 1428.37 L3474.03 1440.00 L3483.93 1451.51 L3493.96 1462.89 L3503.86 1474.16 L3513.88 1485.29 L3523.78 1496.18 L3533.81 1507.07 L3543.71 1517.72 L3553.61 1528.24 L3563.63 1538.63 L3573.53 1548.90 L3583.55 1559.05 L3593.45 1568.95 L3603.48 1578.73 L3613.38 1588.38 L3623.40 1597.79 L3633.30 1607.19 L3643.32 1616.35 L3653.22 1625.26 L3663.25 1634.17 L3673.15 1642.83 L3683.17 1651.37 L3693.07 1659.79 L3703.10 1667.95 L3713.00 1676.00 L3723.02 1683.92 L3732.92 1691.72" stroke-linejoin="round" style="fill:none;stroke:#00B000;stroke-width:8.64"/>
	<rect x="1244.18" y="1814.48" width="510.35" height="139.22" style="fill:#0080FF;fill-opacity:0.50"/>
	<rect x="1248.50" y="1818.80" width="501.71" height="130.58" style="fill:none;stroke:#D7D29E;stroke-width:8.64"/>
	<rect x="1754.53" y="700.57" width="510.22" height="1253.13" style="fill:#0080FF;fill-opacity:0.50"/>
	<rect x="1758.85" y="704.89" width="501.58" height="1244.49" style="fill:none;stroke:#D7D29E;stroke-width:8.64"/>
	<rect x="2264.75" y="561.35" width="510.34" height="1392.35" style="fill:#0080FF;fill-opacity:0.50"/>
	<rect x="2269.07" y="565.67" width="501.71" height="1383.72" style="fill:none;stroke:#D7D29E;stroke-width:8.64"/>
	<rect x="2775.09" y="1118.36" width="510.34" height="835.34" style="fill:#0080FF;fill-opacity:0.50"/>
	<rect x="2779.41" y="1122.68" width="501.71" height="826.70" style="fill:none;stroke:#D7D29E;stroke-width:8.64"/>
	<rect x="3285.44" y="1396.81" width="510.22" height="556.89" style="fill:#0080FF;fill-opacity:0.50"/>
	<rect x="3289.76" y="1401.13" width="501.58" height="548.25" style="fill:none;stroke:#D7D29E;stroke-width:8.64"/>
	<line x1="390.80" y1="1953.70" x2="390.80" y2="100.86" style="stroke:#000000;stroke-width:5.76"/>
	<line x1="390.80" y1="1953.70" x2="350.83" y2="1953.70" style="stroke:#000000;stroke-width:5.76"/>
	<text x="300.72" y="1953.70" style="font-family:'Helvetica';font-size:99.99px;fill:#000000" transform="rotate(-90 300.72,1953.70)" text-anchor="middle">0</text>
	<line x1="390.80" y1="1387.53" x2="350.83" y2="1387.53" style="stroke:#000000;stroke-width:5.76"/>
	<text x="300.72" y="1387.53" style="font-family:'Helvetica';font-size:99.99px;fill:#000000" transform="rotate(-90 300.72,1387.53)" text-anchor="middle">.01</text>
	<line x1="390.80" y1="821.35" x2="350.83" y2="821.35" style="stroke:#000000;stroke-width:5.76"/>
	<text x="300.72" y="821.35" style="font-family:'Helvetica';font-size:99.99px;fill:#000000" transform="rotate(-90 300.72,821.35)" text-anchor="middle">.02</text>
	<line x1="390.80" y1="255.18" x2="350.83" y2="255.18" style="stroke:#000000;stroke-width:5.76"/>
	<text x="300.72" y="255.18" style="font-family:'Helvetica';font-size:99.99px;fill:#000000" transform="rotate(-90 300.72,255.18)" text-anchor="middle">.03</text>
	<text x="190.71" y="1027.28" style="font-family:'Helvetica';font-size:99.99px;fill:#000000" transform="rotate(-90 190.71,1027.28)" text-anchor="middle">Density</text>
	<line x1="390.80" y1="1953.70" x2="3859.02" y2="1953.70" style="stroke:#000000;stroke-width:5.76"/>
	<line x1="454.16" y1="1953.70" x2="454.16" y2="1993.67" style="stroke:#000000;stroke-width:5.76"/>
	<text x="454.16" y="2083.66" style="font-family:'Helvetica';font-size:99.99px;fill:#000000" text-anchor="middle">0</text>
	<line x1="1207.06" y1="1953.70" x2="1207.06" y2="1993.67" style="stroke:#000000;stroke-width:5.76"/>
	<text x="1207.06" y="2083.66" style="font-family:'Helvetica';font-size:99.99px;fill:#000000" text-anchor="middle">20</text>
	<line x1="1960.08" y1="1953.70" x2="1960.08" y2="1993.67" style="stroke:#000000;stroke-width:5.76"/>
	<text x="1960.08" y="2083.66" style="font-family:'Helvetica';font-size:99.99px;fill:#000000" text-anchor="middle">40</text>
	<line x1="2712.97" y1="1953.70" x2="2712.97" y2="1993.67" style="stroke:#000000;stroke-width:5.76"/>
	<text x="2712.97" y="2083.66" style="font-family:'Helvetica';font-size:99.99px;fill:#000000" text-anchor="middle">60</text>
	<line x1="3465.87" y1="1953.70" x2="3465.87" y2="1993.67" style="stroke:#000000;stroke-width:5.76"/>
	<text x="3465.87" y="2083.66" style="font-family:'Helvetica';font-size:99.99px;fill:#000000" text-anchor="middle">80</text>
	<text x="2124.91" y="2193.67" style="font-family:'Helvetica';font-size:99.99px;fill:#000000" text-anchor="middle">age</text>
	<rect x="1237.25" y="2278.31" width="1775.32" height="466.30" style="fill:#FFFFFF"/>
	<rect x="1240.13" y="2281.19" width="1769.56" height="460.54" style="fill:none;stroke:#000000;stroke-width:5.76"/>
	<rect x="1280.44" y="2321.50" width="374.34" height="99.99" style="fill:#FF7F00;fill-opacity:0.40"/>
	<rect x="1284.76" y="2325.82" width="365.70" height="91.35" style="fill:none;stroke:#D7D29E;stroke-width:8.64"/>
	<line x1="1280.44" y1="2511.46" x2="1654.79" y2="2511.46" style="stroke:#00B000;stroke-width:8.64"/>
	<rect x="1280.44" y="2601.43" width="374.34" height="99.99" style="fill:#0080FF;fill-opacity:0.50"/>
	<rect x="1284.76" y="2605.75" width="365.70" height="91.35" style="fill:none;stroke:#D7D29E;stroke-width:8.64"/>
	<text x="1714.80" y="2406.52" style="font-family:'Helvetica';font-size:99.99px;fill:#000000">Sampled from Normal</text>
	<text x="1714.80" y="2546.49" style="font-family:'Helvetica';font-size:99.99px;fill:#000000">Theoretical Normal</text>
	<text x="1714.80" y="2686.46" style="font-family:'Helvetica';font-size:99.99px;fill:#000000">Sampled from t-distribution</text>
</svg>
